# xmcd
#
# Track frame offsets: 
#        150
#        34268
#        46014
#        97724
#        132192
#        166965
#        211043
#        237742
#        247769
#        269057
#        293159
#        312910
#        325181
#
# Disc length: 4691 seconds
#
# Revision: 1
# Processed by: cddbd v1.5.2PL0 Copyright (c) Steve Scherf et al.
# Submitted via: ExactAudioCopy v1.0b1
#
DISCID=af12510d
DTITLE=Eric Harland - Voyager
DYEAR=2010
DGENRE=Jazz
TTITLE0=Treachery
TTITLE1=Intermezzo 1
TTITLE2=Turn Signal
TTITLE3=Voyager
TTITLE4=Intermezzo 2
TTITLE5=Development
TTITLE6=Eclipse
TTITLE7=Intermezzo 3
TTITLE8=Cyclic Episode
TTITLE9=Get Your Hopes Up Part 1
TTITLE10=Get Your Hopes Up Part 2
TTITLE11=Get Your Hopes Up Part 3
TTITLE12=Get Your Hopes Up Part 4
EXTD=YEAR: 2010
EXTT0=
EXTT1=
EXTT2=
EXTT3=
EXTT4=
EXTT5=
EXTT6=
EXTT7=
EXTT8=
EXTT9=
EXTT10=
EXTT11=
EXTT12=
PLAYORDER=
